Coordinates
version=1
nRows=13
nColumns=27
inDegrees=yes

Units are S.I. units (second, meters, Newtons, ...)
If the header above contains a line with 'inDegrees', this indicates whether rotational values are in degrees (yes) or radians (no).

endheader
time	pelvis_rotation	pelvis_tilt	pelvis_list	pelvis_tx	pelvis_ty	pelvis_tz	hip_flexion_r	hip_adduction_r	hip_rotation_r	knee_angle_r	knee_rotation_r	knee_adduction_r	knee_angle_r_beta	ankle_angle_r	subtalar_angle_r	mtp_angle_r	hip_flexion_l	hip_adduction_l	hip_rotation_l	knee_angle_l	knee_rotation_l	knee_adduction_l	knee_angle_l_beta	ankle_angle_l	subtalar_angle_l	mtp_angle_l
     15.59500000	     11.13555170	    -50.16417698	      9.09168874	     -0.08572781	      0.81207828	     -1.21505203	     96.89840419	    -19.57223203	    -14.17740741	     56.61539670	     -8.01758616	      8.50644971	      0.98812508	      7.59839189	     -0.24829861	      0.00000000	     93.58672970	     -5.45799121	    -16.61664584	     50.39916132	     -7.33780048	     -9.44446617	      0.87963131	      6.11290900	      7.71664014	      0.00000000
     15.60000000	     10.73572508	    -50.03873320	      8.91799648	     -0.08611973	      0.80846575	     -1.21461535	     97.42876968	    -19.17702800	    -13.66864706	     57.50678330	     -8.17016128	      8.53454402	      1.00368271	      7.77589927	     -0.74130655	      0.00000000	     94.10225431	     -5.75224470	    -16.70851543	     51.45717836	     -7.65814269	     -9.46785586	      0.89809719	      6.48688343	      7.64803911	      0.00000000
     15.60500000	     10.90028358	    -49.95527630	      8.74514930	     -0.08655306	      0.80486820	     -1.21444620	     97.88935187	    -19.30369832	    -13.72165426	     58.43189912	     -8.35712128	      8.55835461	      1.01982903	      8.05780710	     -0.97448952	      0.00000000	     94.77228754	     -5.55765300	    -16.18608024	     52.45073704	     -7.88288564	     -9.48385648	      0.91543806	      6.77149614	      7.31233325	      0.00000000
     15.61000000	     10.78610572	    -49.82246790	      8.77263138	     -0.08695704	      0.80135098	     -1.21424109	     98.43401181	    -19.17470613	    -13.24813437	     59.33112840	     -8.44479056	      8.59727079	      1.03552354	      8.22516144	     -1.42484614	      0.00000000	     95.24836552	     -5.59982374	    -16.20506423	     53.38588227	     -8.17070524	     -9.49813057	      0.93175942	      7.11872748	      7.16186856	      0.00000000
     15.61500000	     10.20789719	    -50.16669078	      8.48716050	     -0.08860189	      0.79684435	     -1.21337664	     99.57319605	    -18.54397465	    -11.83584204	     60.42556127	     -7.87549613	      7.85753335	      1.05462500	      8.38144476	     -1.76683430	      0.00000000	     96.39151568	     -6.23211069	    -15.52708698	     54.72765711	     -7.75710948	     -9.10988107	      0.95517781	      7.46715941	      6.86626282	      0.00000000
     15.62000000	     10.42030321	    -49.66545729	      8.38497014	     -0.08768704	      0.79469559	     -1.21368620	     99.33283622	    -18.83974713	    -12.81554122	     60.94053020	     -8.67276064	      8.61722306	      1.06361290	      8.64008097	     -2.00909336	      0.00000000	     96.31640094	     -5.80621246	    -15.78836602	     55.23429022	     -8.55793314	     -9.52312542	      0.96402022	      7.67683900	      6.69076668	      0.00000000
     15.62500000	     10.25073838	    -49.54988165	      8.26977866	     -0.08808687	      0.79149827	     -1.21345210	     99.75024737	    -18.69055713	    -12.50225618	     61.71656551	     -8.73137252	      8.62177191	      1.07715727	      8.82779641	     -2.28959272	      0.00000000	     96.75724463	     -5.88909120	    -15.63212960	     56.07679928	     -8.72247599	     -9.53213543	      0.97872478	      7.94718857	      6.44572360	      0.00000000
     15.63000000	      9.77236169	    -49.49488868	      7.97043357	     -0.08846226	      0.78842243	     -1.21302063	    100.16649942	    -18.25732285	    -12.17448758	     62.40245200	     -8.80454790	      8.59815640	      1.08912825	      8.95108829	     -2.63854186	      0.00000000	     97.21885849	     -6.25368238	    -15.53511266	     56.94600536	     -8.85354080	     -9.54426674	      0.99389529	      8.22824783	      6.26675796	      0.00000000
     15.63500000	      9.55850776	    -49.47253848	      7.74349927	     -0.08886107	      0.78540954	     -1.21275241	    100.58934388	    -18.06792096	    -11.98672346	     63.09661027	     -8.86260647	      8.58490179	      1.10124360	      9.13047818	     -2.89243029	      0.00000000	     97.73641257	     -6.37935622	    -15.25379285	     57.75858659	     -8.95733371	     -9.54977522	      1.00807751	      8.48559104	      6.00937766	      0.00000000
     15.64000000	      9.35920726	    -49.77981060	      7.61908081	     -0.09026988	      0.78144928	     -1.21224147	    101.57166353	    -17.81366288	    -10.87431489	     64.05526717	     -8.27957068	      7.85448451	      1.11797532	      9.34220234	     -2.91095700	      0.00000000	     98.74264685	     -6.64029645	    -14.39846725	     58.82485332	     -8.46793711	     -9.18394123	      1.02668737	      8.71828465	      5.65916731	      0.00000000
     15.64500000	      9.26704114	    -49.40753672	      7.48069797	     -0.08958515	      0.77973366	     -1.21243869	    101.41581301	    -17.82143139	    -11.57095698	     64.42529674	     -8.95928196	      8.52914901	      1.12443355	      9.49076436	     -3.23847763	      0.00000000	     98.65563076	     -6.50944351	    -14.77509445	     59.23631793	     -9.12295469	     -9.55795305	      1.03386878	      8.93353518	      5.46338442	      0.00000000
     15.65000000	      8.51229093	    -49.38213697	      6.49941921	     -0.08982900	      0.77726423	     -1.21186188	    101.44784046	    -17.27247775	    -11.94706354	     64.80882273	     -9.06837491	      8.51485747	      1.13112734	      9.62164038	     -3.50335112	      0.00000000	     99.16335110	     -7.01280813	    -14.06950257	     60.05636954	     -9.13157251	     -9.56292683	      1.04818139	      9.17394628	      5.26419962	      0.00000000
     15.65500000	      8.72362073	    -49.34959398	      7.02923280	     -0.09024903	      0.77457323	     -1.21204253	    102.08930660	    -17.36703977	    -11.21324571	     65.55104277	     -9.03738183	      8.45675881	      1.14408152	      9.78404281	     -3.61267060	      0.00000000	     99.48029032	     -6.84660158	    -14.29560476	     60.60873515	     -9.21884580	     -9.56947737	      1.05782198	      9.33706642	      4.96673524	      0.00000000
